<svg t="1670153129525" class="icon" viewBox="0 0 1024 1024" version="1.1" xmlns="http://www.w3.org/2000/svg" p-id="2523" xmlns:xlink="http://www.w3.org/1999/xlink" width="100%" height="100%"><path d="M512 0c282.7776 0 512 229.2224 512 512s-229.2224 512-512 512S0 794.7776 0 512 229.2224 0 512 0z m0 76.8C271.6416 76.8 76.8 271.6416 76.8 512s194.8416 435.2 435.2 435.2 435.2-194.8416 435.2-435.2S752.3584 76.8 512 76.8z" fill='#555555' p-id="2524"></path><path d="M312.8832 312.8832a38.4 38.4 0 0 1 54.2976 0L512 457.6768l144.8448-144.7936a38.4 38.4 0 0 1 54.2976 54.2976L566.2976 512l144.8192 144.8448a38.4 38.4 0 0 1-54.2976 54.2976l-144.8448-144.8192-144.7936 144.8192a38.4 38.4 0 0 1-54.2976-54.2976l144.7936-144.8448-144.7936-144.7936a38.4 38.4 0 0 1 0-54.2976z" fill='#555555' p-id="2525"></path></svg>