<svg t="1670153078190" class="icon" viewBox="0 0 1024 1024" version="1.1" xmlns="http://www.w3.org/2000/svg" p-id="2376" xmlns:xlink="http://www.w3.org/1999/xlink" width="100%" height="100%"><path d="M512 0c282.7776 0 512 229.2224 512 512s-229.2224 512-512 512S0 794.7776 0 512 229.2224 0 512 0z m0 76.8C271.6416 76.8 76.8 271.6416 76.8 512s194.8416 435.2 435.2 435.2 435.2-194.8416 435.2-435.2S752.3584 76.8 512 76.8z" fill='#000' p-id="2377"></path><path d="M724.992 331.776a38.4 38.4 0 0 1 57.9328 50.2528l-2.5856 2.9696-288 299.6736a38.4 38.4 0 0 1-51.8144 3.3024l-2.9696-2.6624-183.04-181.888a38.4 38.4 0 0 1 51.2256-57.088l2.9184 2.6112 155.3408 154.3424 260.9664-271.488z" fill='#000' p-id="2378"></path></svg>