<?xml version="1.0" standalone="no"?><!DOCTYPE svg PUBLIC "-//W3C//DTD SVG 1.1//EN" "http://www.w3.org/Graphics/SVG/1.1/DTD/svg11.dtd"><svg t="1670138661576" class="icon" viewBox="0 0 1024 1024" version="1.1" xmlns="http://www.w3.org/2000/svg" p-id="1898" xmlns:xlink="http://www.w3.org/1999/xlink" width="200" height="200"><path d="M745.7792 553.8816l-2.7136 2.816-204.8 192-0.6912 0.64c-0.512 0.4864-1.1008 0.9472-1.664 1.408l2.3552-2.048a38.784 38.784 0 0 1-18.8416 9.6768 37.12 37.12 0 0 1-11.1104 0.5376 39.8336 39.8336 0 0 1-12.8256-3.5584 37.5808 37.5808 0 0 1-10.0864-6.9888l2.0992 1.8944a38.5536 38.5536 0 0 1-1.3056-1.152l-0.7936-0.7424-199.7824-192-2.688-2.8672a38.4 38.4 0 0 1 55.9104-52.48l134.7584 129.4848V42.2912a38.4 38.4 0 1 1 76.8 0V632.064l140.1344-131.3792a38.4 38.4 0 0 1 55.2448 53.1968zM0 947.2h1024v76.8H0z" fill="#000000" p-id="1899"></path><path d="M0 716.8m38.4 0l0 0q38.4 0 38.4 38.4l0 230.4q0 38.4-38.4 38.4l0 0q-38.4 0-38.4-38.4l0-230.4q0-38.4 38.4-38.4Z" fill="#000000" p-id="1900"></path><path d="M947.2 716.8m38.4 0l0 0q38.4 0 38.4 38.4l0 230.4q0 38.4-38.4 38.4l0 0q-38.4 0-38.4-38.4l0-230.4q0-38.4 38.4-38.4Z" fill="#000000" p-id="1901"></path></svg>