<?xml version="1.0" standalone="no"?><!DOCTYPE svg PUBLIC "-//W3C//DTD SVG 1.1//EN" "http://www.w3.org/Graphics/SVG/1.1/DTD/svg11.dtd"><svg t="1670138337157" class="icon" viewBox="0 0 1024 1024" version="1.1" xmlns="http://www.w3.org/2000/svg" p-id="1752" xmlns:xlink="http://www.w3.org/1999/xlink" width="200" height="200"><path d="M256 76.8H102.4a25.6 25.6 0 0 0-25.4208 22.6048L76.8 102.4v819.2a25.6 25.6 0 0 0 22.6048 25.4208L102.4 947.2h819.2a25.6 25.6 0 0 0 25.4208-22.6048L947.2 921.6V102.4a25.6 25.6 0 0 0-22.6048-25.4208L921.6 76.8h-179.2V0h179.2a102.4 102.4 0 0 1 102.4 102.4v819.2a102.4 102.4 0 0 1-102.4 102.4H102.4a102.4 102.4 0 0 1-102.4-102.4V102.4a102.4 102.4 0 0 1 102.4-102.4h153.6v76.8z" fill="#000000" p-id="1753"></path><path d="M274.3296 205.2096l2.7136-2.816 204.8-192 0.6912-0.64 1.664-1.408-2.3552 2.048a38.784 38.784 0 0 1 18.8416-9.6768 37.12 37.12 0 0 1 11.1104-0.5376 39.8336 39.8336 0 0 1 12.8256 3.5328 37.5808 37.5808 0 0 1 10.112 7.0144l-2.1248-1.8944 1.3312 1.1264 0.768 0.768 199.7824 192 2.688 2.8416a38.4 38.4 0 0 1-55.9104 52.5056l-134.7584-129.4848V716.8a38.4 38.4 0 0 1-76.8 0V127.0272l-140.1344 131.3792a38.4 38.4 0 0 1-55.2448-53.1968z" fill="#000000" p-id="1754"></path></svg>